<svg width="50" height="44" viewBox="0 0 50 44" fill="none" xmlns="http://www.w3.org/2000/svg">
<path d="M18.8999 2.93531C17.7879 2.93531 16.5952 3.55236 15.5874 3.94501C14.4207 4.39958 13.3106 4.84835 12.3634 5.68099C7.81139 9.68279 2.76477 13.4407 1.46927 19.6928C0.556467 24.0981 0.923529 29.1568 3.02811 33.1555C5.07368 37.0421 8.56065 39.3368 12.6469 40.8257C20.1782 43.5701 29.1033 42.2746 36.49 39.7452C41.5969 37.9965 45.5938 34.7112 47.2248 29.4887C48.7184 24.706 49.4959 19.2582 47.9156 14.3963C46.8216 11.0305 44.3615 8.39686 41.6271 6.26556C36.1628 2.00639 29.3512 1.55721 22.6553 1.50047C21.1775 1.48794 20.2691 1.72712 18.8999 2.2976" stroke="#003E01" stroke-width="2" stroke-linecap="round"/>
</svg>
