<svg width="64" height="64" viewBox="0 0 64 64" fill="none" xmlns="http://www.w3.org/2000/svg">
<rect width="64" height="64" fill="white"/>
<path d="M25.7394 12.2874C24.5854 12.2874 23.3476 12.9278 22.3017 13.3352C21.0909 13.807 19.9388 14.2727 18.9559 15.1368C14.2319 19.2898 8.99454 23.1897 7.65009 29.6781C6.70279 34.2499 7.08373 39.4997 9.26783 43.6495C11.3907 47.683 15.0094 50.0643 19.25 51.6096C27.066 54.4576 36.3283 53.1132 43.9941 50.4882C49.294 48.6734 53.4419 45.2639 55.1345 39.8442C56.6846 34.8807 57.4915 29.227 55.8515 24.1815C54.7161 20.6885 52.163 17.9553 49.3253 15.7435C43.6546 11.3234 36.5856 10.8572 29.6367 10.7983C28.1031 10.7853 27.1603 11.0336 25.7394 11.6256" stroke="#003E01" stroke-width="2" stroke-linecap="round"/>
</svg>
